<svg xmlns="http://www.w3.org/2000/svg" width="72.199" height="62.809" viewBox="0 0 72.199 62.809">
  <g id="casual-t-shirt-" transform="translate(0 -19.219)" opacity="0.1">
    <path id="Контур_168" data-name="Контур 168" d="M126.734,28.832a7.138,7.138,0,0,0,6.8-4.927,26.292,26.292,0,0,1-6.8.817,26.288,26.288,0,0,1-6.8-.817A7.137,7.137,0,0,0,126.734,28.832Z" transform="translate(-90.634 -3.541)" fill="#ccc"/>
    <path id="Контур_169" data-name="Контур 169" d="M72.109,28.9a1.654,1.654,0,0,0-.86-.946L57.484,21.6a66.568,66.568,0,0,0-8.923-2.348,1.641,1.641,0,0,0-.316-.031,1.617,1.617,0,0,0-1.579,1.27,10.827,10.827,0,0,1-21.133,0,1.619,1.619,0,0,0-1.58-1.27,1.641,1.641,0,0,0-.316.031A66.823,66.823,0,0,0,14.71,21.6L.95,27.952a1.62,1.62,0,0,0-.858.946,1.606,1.606,0,0,0,.086,1.275L6.154,41.966a1.622,1.622,0,0,0,1.919.826l6.637-1.967V80.4a1.635,1.635,0,0,0,1.634,1.632h39.51a1.633,1.633,0,0,0,1.63-1.632V40.826l6.642,1.967a1.622,1.622,0,0,0,1.919-.826l5.978-11.793A1.638,1.638,0,0,0,72.109,28.9Z" transform="translate(0)" fill="#ccc"/>
  </g>
</svg>
