<svg xmlns="http://www.w3.org/2000/svg" width="25" height="25" viewBox="0 0 25 25">
  <g id="close_1_" data-name="close (1)" transform="translate(-21 -2)">
    <g id="Сгруппировать_265" data-name="Сгруппировать 265" transform="translate(21 2)">
      <path id="Контур_190" data-name="Контур 190" d="M12.5,0A12.5,12.5,0,1,0,25,12.5,12.514,12.514,0,0,0,12.5,0Zm5.056,16.083a.521.521,0,0,1,0,.737l-.736.736a.521.521,0,0,1-.737,0L12.5,13.973,8.917,17.556a.521.521,0,0,1-.737,0l-.736-.736a.521.521,0,0,1,0-.737L11.027,12.5,7.444,8.917a.521.521,0,0,1,0-.737l.736-.736a.521.521,0,0,1,.737,0L12.5,11.027l3.583-3.583a.521.521,0,0,1,.737,0l.736.736a.521.521,0,0,1,0,.737L13.973,12.5Z" fill="#fff"/>
    </g>
  </g>
</svg>
