<svg xmlns="http://www.w3.org/2000/svg" width="49.34" height="42.301" viewBox="0 0 49.34 42.301">
  <path id="comedy" d="M48.971,31.141a2.579,2.579,0,0,0-1.612-1.213l-17.221-4.28a67.667,67.667,0,0,0-.632-7.781,2.792,2.792,0,0,0-2.726-2.429,2.688,2.688,0,0,0-.432.035l-24.07,3.94a2.678,2.678,0,0,0-1.77,1.12,2.855,2.855,0,0,0-.459,2.156C3.073,38.728,10.827,50.37,18.484,50.37h0a7.46,7.46,0,0,0,1.2-.1,7.537,7.537,0,0,0,2.187-.718c1.365,4.3,3.7,7.191,6.863,7.976a7.117,7.117,0,0,0,1.713.208h0c3.479,0,7.3-2.539,10.755-7.149a52.981,52.981,0,0,0,8.036-17.348A2.743,2.743,0,0,0,48.971,31.141Zm-19.04.972.8-.052a1.14,1.14,0,0,1,1.213,1.177A3.686,3.686,0,0,1,29.3,36.569Q29.713,34.44,29.93,32.113ZM18.065,26.975a3.943,3.943,0,0,1,4.181-3.393h.069a3.956,3.956,0,0,1,4.158,3.354,1.161,1.161,0,0,1,.024.234,1.14,1.14,0,0,1-1.14,1.14h-.018l-6.155-.07a1.139,1.139,0,0,1-1.12-1.265ZM6.909,31.51a1.139,1.139,0,0,1-1.088-.8A3.949,3.949,0,0,1,8.358,25.9a4.826,4.826,0,0,1,1.878-.409,3.9,3.9,0,0,1,3.341,1.935,1.14,1.14,0,0,1-.556,1.6l-5.668,2.4A1.139,1.139,0,0,1,6.909,31.51ZM18.815,44.946a6.619,6.619,0,0,1-1.066.089c-5.42,0-7.042-6.813-7.108-7.1a1.14,1.14,0,0,1,.927-1.379L23.007,34.68a1.14,1.14,0,0,1,1.319,1.012C24.609,38.534,23.822,44.126,18.815,44.946ZM37.2,50.694a1.14,1.14,0,0,1-1.4.9L25.274,48.979a1.131,1.131,0,0,1-.825-1.388,16.17,16.17,0,0,0,2.97-4.71,5.7,5.7,0,0,1,3.823-1.507,6.091,6.091,0,0,1,1.464.185C37.368,42.717,37.683,48.041,37.2,50.694Zm6.8-12.161a3.729,3.729,0,0,1-2.979,1.533,4.394,4.394,0,0,1-2.122-.589,3.767,3.767,0,0,1-1.934-4.814,1.14,1.14,0,0,1,1.6-.551L43.6,36.889a1.139,1.139,0,0,1,.39,1.644Z" transform="translate(0.001 -15.438)" fill="#ccc" opacity="0.1"/>
</svg>
