<svg xmlns="http://www.w3.org/2000/svg" width="42.558" height="15.744" viewBox="0 0 42.558 15.744">
  <g id="glasses" transform="translate(-3.596 -120.308)" opacity="0.1">
    <g id="Сгруппировать_226" data-name="Сгруппировать 226" transform="translate(0 118.547)">
      <path id="Контур_177" data-name="Контур 177" d="M42.448,119.743c-.22-.374-1.043-.643-2.248-.8-.986-.13-2.319-.235-3.81-.3-4.672-.21-10.964,0-13.155,1.11h-.04a8.176,8.176,0,0,1-1.9.694,8.185,8.185,0,0,1-1.927-.694c-2.16-1.143-8.5-1.341-13.2-1.131-1.491.067-2.825.172-3.81.3-1.205.16-2.028.42-2.248.8a.77.77,0,0,0-.11.42L.119,122.5c.04.841.563.921,1.245,1.009.326.042.792.1.88.958a11.493,11.493,0,0,1,0,1.513c-.035.593-.053,1.328-.106,2.19v.446a4.833,4.833,0,0,0,2.437,4.237,11.243,11.243,0,0,0,5.24,1.412c.4.021.832.029,1.271.025a10.376,10.376,0,0,0,6.529-2.1A11.965,11.965,0,0,0,21.294,127v0A13.194,13.194,0,0,0,25,132.18a10.216,10.216,0,0,0,6.459,2.1c.44,0,.88,0,1.271-.025a11.229,11.229,0,0,0,5.24-1.412,4.839,4.839,0,0,0,2.455-4.237v-.446c-.053-.862-.092-1.593-.106-2.19s0-1.093,0-1.509c.066-.841.532-.921.88-.958.682-.088,1.205-.151,1.245-1.009l.114-2.333A.774.774,0,0,0,42.448,119.743ZM11.127,131.066c-2.82.034-5.253-.878-5.28-3.451l-.062-5.107c0-.319,12.108-2.476,12.02,2.467C16.895,128.485,15.082,131.02,11.127,131.066Zm20.335-.008c-3.96-.046-5.764-2.577-6.679-6.086-.087-4.9,11.828-2.816,12.015-2.471l-.057,5.107C36.715,130.179,34.277,131.091,31.462,131.058Z" transform="translate(3.597 -116.786)" fill="#ccc"/>
    </g>
  </g>
</svg>
