<svg xmlns="http://www.w3.org/2000/svg" width="48.118" height="27.135" viewBox="0 0 48.118 27.135">
  <g id="hat_1_" data-name="hat (1)" transform="translate(0 -88.06)" opacity="0.1">
    <g id="Сгруппировать_231" data-name="Сгруппировать 231" transform="translate(0 88.06)">
      <g id="Сгруппировать_230" data-name="Сгруппировать 230" transform="translate(0 0)">
        <path id="Контур_184" data-name="Контур 184" d="M77.925,108.9a46.789,46.789,0,0,0,10.484,1.053A46.789,46.789,0,0,0,98.893,108.9c3.031-.734,4.9-1.906,4.9-3.3,0-14.135-4.446-17.547-8.9-17.547-2.964,0-5.828,1.568-7.387,2.416a8.229,8.229,0,0,1-.824.424,7.878,7.878,0,0,1-3.579-.067,18.28,18.28,0,0,0-2.94-.291c-3.846.033-7.258,2.273-7.148,15.064C73.021,107.037,74.894,108.176,77.925,108.9Z" transform="translate(-64.319 -88.06)" fill="#ccc"/>
        <path id="Контур_185" data-name="Контур 185" d="M45.387,223.341a22.434,22.434,0,0,0-4.675-1.6v1.62c0,2.774-3.7,4.013-5.876,4.537a47.273,47.273,0,0,1-10.761,1.091A47.268,47.268,0,0,1,13.3,227.9c-2.173-.524-5.9-1.763-5.9-4.537v-1.616a22.4,22.4,0,0,0-4.666,1.6C.982,224.228,0,225.3,0,226.515c0,1.987,2.859,3.67,7.439,4.766a74.33,74.33,0,0,0,16.6,1.668A75.48,75.48,0,0,0,40.679,231.3c4.6-1.11,7.439-2.793,7.439-4.766C48.118,225.3,47.141,224.223,45.387,223.341Z" transform="translate(0 -205.813)" fill="#ccc"/>
      </g>
    </g>
  </g>
</svg>
