<svg xmlns="http://www.w3.org/2000/svg" width="42.686" height="42.686" viewBox="0 0 42.686 42.686">
  <g id="hoodie" opacity="0.1">
    <path id="Контур_186" data-name="Контур 186" d="M150.033,2.857q.563,0,1.115.043A3.937,3.937,0,0,0,147.354,0H133.959a3.937,3.937,0,0,0-3.794,2.9q.552-.042,1.115-.043Z" transform="translate(-119.313)" fill="#ccc"/>
    <path id="Контур_187" data-name="Контур 187" d="M30.72,64.267H26.612v9.288a1.251,1.251,0,1,1-2.5,0V64.267H18.575v9.288a1.251,1.251,0,1,1-2.5,0V64.267H11.967A11.967,11.967,0,0,0,0,76.234v6.7a1.251,1.251,0,0,0,1.251,1.251H5.536V76.234a1.251,1.251,0,1,1,2.5,0v24.111A1.251,1.251,0,0,0,9.288,101.6H33.4a1.251,1.251,0,0,0,1.251-1.251V76.234a1.251,1.251,0,1,1,2.5,0v7.948h4.285a1.251,1.251,0,0,0,1.251-1.251v-6.7A11.967,11.967,0,0,0,30.72,64.267Z" transform="translate(0 -58.909)" fill="#ccc"/>
  </g>
</svg>
