<svg xmlns="http://www.w3.org/2000/svg" width="29.339" height="41.796" viewBox="0 0 29.339 41.796">
  <g id="medal-necklace" transform="translate(-87.71)" opacity="0.1">
    <g id="Сгруппировать_229" data-name="Сгруппировать 229" transform="translate(87.71 0)">
      <path id="Контур_181" data-name="Контур 181" d="M115.922,0a1.176,1.176,0,0,0-.867.4,1.039,1.039,0,0,0-.238.845A24.179,24.179,0,0,1,103.458,25.3a1.046,1.046,0,0,0-.116.081,3.3,3.3,0,0,0-.812-.1c-.052,0-.1,0-.146,0a3.247,3.247,0,0,0-.967.1,1.049,1.049,0,0,0-.116-.081A24.178,24.178,0,0,1,89.942,1.248,1.039,1.039,0,0,0,89.7.4a1.176,1.176,0,0,0-.867-.4A.811.811,0,0,0,88,.741,26.142,26.142,0,0,0,99.625,26.61a3.352,3.352,0,0,0-.46.912,3.464,3.464,0,0,0-.147.67,3.533,3.533,0,0,0-.015.62,6.931,6.931,0,1,0,6.754,0,3.54,3.54,0,0,0-.015-.62,3.465,3.465,0,0,0-.147-.67,3.353,3.353,0,0,0-.46-.912A26.142,26.142,0,0,0,116.755.741.812.812,0,0,0,115.922,0ZM101.23,27.763a1.3,1.3,0,0,1,.449-.339,1.488,1.488,0,0,1,.628-.139l.077,0a1.472,1.472,0,0,1,.7.138,1.3,1.3,0,0,1,.449.339,1.159,1.159,0,0,1,.18.3,6.929,6.929,0,0,0-2.658,0A1.172,1.172,0,0,1,101.23,27.763Zm6.692,7.1a5.542,5.542,0,1,1-8.116-4.907c.055-.029.111-.059.168-.086a5.516,5.516,0,0,1,.7-.279q.087-.028.175-.053a5.52,5.52,0,0,1,3.068,0c.059.017.117.034.175.053a5.471,5.471,0,0,1,.7.279c.057.027.112.057.168.086A5.548,5.548,0,0,1,107.922,34.864Z" transform="translate(-87.71 0)" fill="#ccc"/>
      <circle id="Эллипс_14" data-name="Эллипс 14" cx="4.456" cy="4.456" r="4.456" transform="translate(10.214 30.408)" fill="#ccc"/>
    </g>
  </g>
</svg>
