<svg xmlns="http://www.w3.org/2000/svg" width="49.354" height="21.667" viewBox="0 0 49.354 21.667">
  <path id="men-shoe" d="M49.316,99.634l-.737-2.422a.882.882,0,0,0-1.09-.59c-.386.112-.108.043-.5.149l-.054-.193a8.012,8.012,0,0,0-6.981-5.834,36.2,36.2,0,0,1-9.84-2.5,13.014,13.014,0,0,1-1.681-.839L26.918,89.8a1.274,1.274,0,1,1-2.15-1.368l1.52-2.389c-.707-.483-1.421-1-2.1-1.508l-3.059,4.181a1.274,1.274,0,0,1-2.056-1.5l3.094-4.228c-.579-.457-1.089-.868-1.49-1.2a1.255,1.255,0,0,0-1.717.119A20.493,20.493,0,0,1,4.32,88.246a22.489,22.489,0,0,1-2.291-.076.851.851,0,0,0-.918.849v9.85H.778A.778.778,0,0,0,0,99.647v2.739a.778.778,0,0,0,.778.778l20.878-.068c10.875,0,18.068.258,27.062-2.359a.882.882,0,0,0,.6-1.1Z" transform="translate(0 -81.498)" fill="#ccc" opacity="0.1"/>
</svg>
