<svg xmlns="http://www.w3.org/2000/svg" width="40.889" height="41.722" viewBox="0 0 40.889 41.722">
  <g id="pair-of-gloves" transform="translate(-2.83)" opacity="0.1">
    <path id="Контур_182" data-name="Контур 182" d="M15.486,26.646a4.406,4.406,0,1,1,6.347-6.111l.039.041-1.1-9.367a4.411,4.411,0,0,1,3.859-4.891c.14-.017.282-.025.423-.028l.176-2.073a2.2,2.2,0,0,0-4.384-.373l-.616,7.236a.355.355,0,0,1-.709-.03V2.2a2.2,2.2,0,1,0-4.4,0v8.71a.294.294,0,0,1-.586.034L13.7,3.873a2.2,2.2,0,1,0-4.37.515l1.718,14.578a.441.441,0,0,1-.755.357L6.614,15.5a2.2,2.2,0,1,0-3.169,3.051c9.8,10.18,10.077,10.177,10.327,10.336a1.365,1.365,0,0,0-1.111,1.34v3.564a1.365,1.365,0,0,0,1.365,1.365h9.656Z" fill="#ccc"/>
    <path id="Контур_183" data-name="Контур 183" d="M120.348,65.277l2.39-11.708a2,2,0,0,0-3.922-.8l-.953,4.668a.339.339,0,0,1-.669-.1l.723-8.5a2.2,2.2,0,1,0-4.384-.373l-.616,7.236a.355.355,0,0,1-.709-.03v-8.85a2.2,2.2,0,0,0-4.4,0v8.71a.294.294,0,0,1-.586.034l-.833-7.071a2.2,2.2,0,1,0-4.37.515l1.718,14.578a.441.441,0,0,1-.755.357L99.3,60.129a2.2,2.2,0,1,0-3.169,3.051s10.077,10.177,10.327,10.336a1.365,1.365,0,0,0-1.111,1.34V78.42a1.365,1.365,0,0,0,1.365,1.365h12.968a1.365,1.365,0,0,0,1.365-1.365V74.857a1.365,1.365,0,0,0-1.122-1.342,2.187,2.187,0,0,0,.421-1.291V65.277Zm-2.75,12.83a1.519,1.519,0,1,1,1.519-1.519A1.519,1.519,0,0,1,117.6,78.107Z" transform="translate(-79.06 -38.064)" fill="#ccc"/>
  </g>
</svg>
