<svg xmlns="http://www.w3.org/2000/svg" width="26.658" height="42.304" viewBox="0 0 26.658 42.304">
  <g id="phone_2_" data-name="phone (2)" transform="translate(-71.6)" opacity="0.1">
    <g id="Сгруппировать_225" data-name="Сгруппировать 225" transform="translate(71.6)">
      <path id="Контур_176" data-name="Контур 176" d="M97.078,1.184v0A4,4,0,0,0,94.242,0H75.612A4.025,4.025,0,0,0,71.6,4.012V38.287A4.029,4.029,0,0,0,75.612,42.3H94.246a4.029,4.029,0,0,0,4.012-4.012V4.016A4,4,0,0,0,97.078,1.184Zm-12.149,38.4h0A1.084,1.084,0,1,1,86.013,38.5,1.084,1.084,0,0,1,84.929,39.581Zm10.143-6.8A2.622,2.622,0,0,1,92.45,35.4H77.4a2.622,2.622,0,0,1-2.622-2.622V7.233A2.622,2.622,0,0,1,77.4,4.611H92.455a2.622,2.622,0,0,1,2.622,2.622Z" transform="translate(-71.6)" fill="#ccc"/>
    </g>
  </g>
</svg>
