<svg xmlns="http://www.w3.org/2000/svg" width="25.658" height="38.894" viewBox="0 0 25.658 38.894">
  <g id="watch" transform="translate(-65.86)" opacity="0.1">
    <g id="Сгруппировать_224" data-name="Сгруппировать 224" transform="translate(65.86)">
      <g id="Сгруппировать_223" data-name="Сгруппировать 223" transform="translate(0)">
        <path id="Контур_170" data-name="Контур 170" d="M117.244,9.4V2.05A2.058,2.058,0,0,0,115.195,0H100.1a2.058,2.058,0,0,0-2.05,2.05V9.4A13.9,13.9,0,0,1,117.244,9.4Z" transform="translate(-94.818)" fill="#ccc"/>
        <path id="Контур_171" data-name="Контур 171" d="M289.057,93.527l0,0v0Z" transform="translate(-266.627 -84.126)" fill="#ccc"/>
        <path id="Контур_172" data-name="Контур 172" d="M148.283,187.9v0h3.243v4.823a.711.711,0,0,0,1.419,0v-5.534a.711.711,0,0,0-.707-.711h-3.955a.711.711,0,0,0,0,1.419Z" transform="translate(-139.409 -167.743)" fill="#ccc"/>
        <path id="Контур_173" data-name="Контур 173" d="M78.688,91.5a12.829,12.829,0,1,0-9.071-3.758A12.829,12.829,0,0,0,78.688,91.5ZM69.8,78.673a8.886,8.886,0,0,1,8.886-8.886v.008A8.886,8.886,0,1,1,69.8,78.681Z" transform="translate(-65.86 -59.224)" fill="#ccc"/>
        <path id="Контур_174" data-name="Контур 174" d="M98.013,293.564v7.343a2.058,2.058,0,0,0,2.05,2.05h15.092a2.058,2.058,0,0,0,2.05-2.05V293.56A13.9,13.9,0,0,1,98.013,293.564Z" transform="translate(-94.782 -264.063)" fill="#ccc"/>
        <path id="Контур_175" data-name="Контур 175" d="M97.973,293.56l0,0v0Z" transform="translate(-94.746 -264.063)" fill="#ccc"/>
      </g>
    </g>
  </g>
</svg>
