<svg width="35" height="34" viewBox="0 0 35 34" fill="none" xmlns="http://www.w3.org/2000/svg">
<path d="M17.4167 31.5056C25.9311 31.5056 32.8333 24.9006 32.8333 16.7528C32.8333 8.60506 25.9311 2 17.4167 2C8.90227 2 2 8.60506 2 16.7528C2 24.9006 8.90227 31.5056 17.4167 31.5056Z" stroke="#FF0000" stroke-width="3.08333" stroke-linecap="round" stroke-linejoin="round"/>
<path d="M23.4575 20.8371L19.6206 17.0002L23.4575 13.1634C24.1811 12.4398 24.1811 11.2666 23.4575 10.543C22.7339 9.81941 21.5607 9.81941 20.8371 10.543L16.9999 14.3799L13.1631 10.5427C12.4392 9.8191 11.266 9.8191 10.5427 10.5427C9.8191 11.2666 9.8191 12.4398 10.5427 13.1631L14.3799 16.9999L10.5427 20.8368C9.8191 21.5607 9.8191 22.7339 10.5427 23.4572C10.9049 23.8191 11.3787 23.9998 11.853 23.9998C12.3271 23.9998 12.8014 23.8188 13.1634 23.4572L16.9999 19.6206L20.8371 23.4575C21.1994 23.8191 21.6731 24.0001 22.1475 24.0001C22.6218 24.0001 23.0959 23.8191 23.4578 23.4575C24.1811 22.7339 24.1811 21.561 23.4575 20.8371Z" fill="#FF0000"/>
</svg>
