<svg width="35" height="34" viewBox="0 0 35 34" fill="none" xmlns="http://www.w3.org/2000/svg">
<path d="M17.4167 31.5056C25.9311 31.5056 32.8333 24.9006 32.8333 16.7528C32.8333 8.60506 25.9311 2 17.4167 2C8.90227 2 2 8.60506 2 16.7528C2 24.9006 8.90227 31.5056 17.4167 31.5056Z" stroke="#00FF19" stroke-width="3.08333" stroke-linecap="round" stroke-linejoin="round"/>
<path d="M16.1479 23.0979C15.3318 23.914 14.0076 23.914 13.1919 23.0979L8.61207 18.518C7.79598 17.7023 7.79598 16.3781 8.61207 15.5624C9.42776 14.7463 10.7519 14.7463 11.568 15.5624L14.2967 18.2907C14.5027 18.4963 14.8371 18.4963 15.0435 18.2907L22.432 10.9021C23.2477 10.086 24.5718 10.086 25.3879 10.9021C25.7798 11.294 26 11.8257 26 12.3799C26 12.934 25.7798 13.4658 25.3879 13.8577L16.1479 23.0979Z" fill="#00FF19"/>
</svg>
