<svg width="37" height="37" viewBox="0 0 37 37" fill="none" xmlns="http://www.w3.org/2000/svg">
<g clip-path="url(#clip0)">
<path d="M36.0375 31.4591L21.5291 16.9506L4.57848 0H3.25378L2.98329 0.687318C2.26937 2.50147 1.96434 4.35697 2.10128 6.05297C2.25738 7.98622 2.99181 9.65996 4.22531 10.8935L17.4579 24.126L19.2032 22.3807L31.4367 36.06C32.6537 37.277 34.7483 37.3493 36.0375 36.06C37.3061 34.7915 37.3061 32.7276 36.0375 31.4591Z" fill="white"/>
<path d="M11.3257 21.0613L0.962047 31.425C-0.306359 32.6934 -0.306359 34.7574 0.962047 36.0258C2.167 37.2307 4.25151 37.3371 5.56284 36.0258L15.9266 25.662L11.3257 21.0613Z" fill="white"/>
<path d="M35.4292 6.16061L29.5503 12.0394L28.0166 10.5058L33.8955 4.62691L32.3619 3.09329L26.4831 8.9721L24.9495 7.43848L30.8284 1.55967L29.2948 0.026123L21.6267 7.69423C20.6886 8.63231 20.1285 9.87788 20.0493 11.2016C20.0293 11.537 19.9533 11.8669 19.8271 12.1807L24.8083 17.1619C25.1221 17.0356 25.4521 16.9597 25.7874 16.9397C27.1112 16.8607 28.3567 16.3004 29.2948 15.3623L36.9629 7.6943L35.4292 6.16061Z" fill="white"/>
</g>
<defs>
<clipPath id="clip0">
<rect width="37" height="37" fill="white"/>
</clipPath>
</defs>
</svg>
