<svg width="37" height="37" viewBox="0 0 37 37" fill="none" xmlns="http://www.w3.org/2000/svg">
<g clip-path="url(#clip0)">
<path d="M21.9175 4.07938C21.063 2.82286 20.3091 1.66687 19.6055 0.611396C19.5049 0.460614 19.3542 0.309832 19.2034 0.209311C18.6003 -0.192775 17.7961 0.00826792 17.394 0.611396C16.7406 1.66687 15.9867 2.7726 15.082 4.07938C11.1114 9.90962 5.18066 18.7052 5.18066 23.7313C5.18066 27.4003 6.68848 30.7175 9.10099 33.13C11.5135 35.4923 14.8307 37.0001 18.4997 37.0001C22.1688 37.0001 25.486 35.4923 27.8985 33.0798C30.311 30.6673 31.8188 27.3501 31.8188 23.681C31.8188 18.655 25.8881 9.90962 21.9175 4.07938ZM26.0891 31.2704C24.1289 33.2306 21.4651 34.3865 18.4997 34.3865C15.5344 34.3865 12.8705 33.1803 10.9104 31.2704C8.95021 29.3102 7.79422 26.6464 7.79422 23.681C7.79422 19.4591 13.4737 11.0656 17.2432 5.48668C17.6956 4.83329 18.0976 4.1799 18.4997 3.62703C18.9018 4.1799 19.3039 4.83329 19.7563 5.48668C23.5258 11.1159 29.2053 19.4591 29.2053 23.681C29.2053 26.6464 27.999 29.3102 26.0891 31.2704Z" fill="white"/>
<path d="M26.2903 22.7762C25.5867 22.726 24.9835 23.2789 24.9333 23.9825C24.883 25.0882 24.5312 26.1437 23.9783 27.0484C23.4255 27.9531 22.6213 28.7573 21.6663 29.2599C21.0632 29.6117 20.8119 30.4159 21.1637 31.019C21.5658 31.7226 22.37 31.9237 22.9731 31.5719C24.3302 30.8179 25.4359 29.7122 26.1898 28.4557C26.994 27.1992 27.4463 25.6914 27.4966 24.1333C27.5468 23.4296 26.994 22.8265 26.2903 22.7762Z" fill="white"/>
</g>
<defs>
<clipPath id="clip0">
<rect width="37" height="37" fill="white"/>
</clipPath>
</defs>
</svg>
